<svg width="48" height="37" viewBox="0 0 48 37" fill="none" xmlns="http://www.w3.org/2000/svg">
<path d="M20.3077 0C18.6498 0 17.4222 0.923077 16.3274 2.13415C15.2382 3.33231 14.352 4.96246 13.9034 6.92308C13.896 6.94523 13.9108 6.96 13.9034 6.98031C13.4215 8.82646 12.7348 12.0148 12.1735 14.7692C10.8812 13.6523 9.23077 12.9231 7.38462 12.9231C3.30462 12.9231 0 16.2277 0 20.3077C0 24.1938 1.00246 28.5729 4.67262 31.7889C8.34462 35.0031 14.3372 36.9231 24 36.9231C33.6702 36.9231 39.7218 34.968 43.3846 31.7298C47.0474 28.4935 48 24.1108 48 20.3077C48 16.2277 44.6954 12.9231 40.6154 12.9231C38.8564 12.9269 37.1572 13.5617 35.8265 14.712L35.7692 14.6548C35.7692 14.6474 35.712 14.6603 35.712 14.6548C35.0548 11.6105 34.5305 9.04985 34.0966 6.98031C33.6554 4.90338 32.7268 3.22338 31.6154 2.01969C30.504 0.812307 29.2782 0 27.6923 0C26.1858 0 25.1963 0.771693 24.5188 1.27015C24.2806 1.44185 24.1514 1.56554 24 1.67262C23.8486 1.56554 23.7194 1.44185 23.4812 1.27015C22.8037 0.771693 21.8142 0 20.3077 0ZM20.3077 3.69231C20.2782 3.69231 20.7194 3.84369 21.288 4.27015C21.576 4.47877 21.8732 4.70954 22.2683 4.96062C22.6652 5.21354 23.1563 5.53846 24 5.53846C24.8437 5.53846 25.3348 5.21354 25.7317 4.96062C26.1268 4.70954 26.424 4.47877 26.7102 4.27015C27.2825 3.84369 27.7218 3.69231 27.6923 3.69231C27.5834 3.69231 28.2628 3.86585 28.9034 4.55815C29.5458 5.25046 30.216 6.36 30.5188 7.78892C31.032 10.2111 31.7742 13.6597 32.424 16.6726C32.3304 16.7353 32.2336 16.7932 32.1342 16.8462C30.8862 17.5754 28.464 18.4615 24 18.4615C19.536 18.4615 17.1138 17.5754 15.8658 16.8462C15.7218 16.7668 15.6351 16.6948 15.5188 16.6154C16.1538 13.5508 16.9477 9.86585 17.4812 7.84615V7.78892C17.7766 6.45415 18.4412 5.34462 19.0966 4.61538C19.752 3.88615 20.496 3.69231 20.3077 3.69231ZM7.38462 16.6154C9.52615 16.6154 10.9975 18.0369 11.0769 20.1342V20.1932C10.9983 20.5376 11.0181 20.8971 11.1342 21.2308C11.15 21.2896 11.1691 21.3476 11.1914 21.4043C11.5532 25.0025 13.5785 27.4117 16.0394 28.4418C18.7422 29.5809 21.6923 29.5385 24 29.5385C26.3575 29.5385 29.3446 29.5089 32.0197 28.3274C34.5065 27.2234 36.5834 24.7348 36.8658 21.1145C36.9457 20.8533 36.9653 20.5775 36.9231 20.3077V20.2505C36.9303 20.1737 36.9303 20.0964 36.9231 20.0197C37.0449 17.9778 38.5163 16.6154 40.6154 16.6154C42.8142 16.6154 44.3077 18.1089 44.3077 20.3077C44.3077 23.5237 43.608 26.5754 40.9034 28.9625C38.1988 31.3477 33.1588 33.2308 24 33.2308C14.8338 33.2308 9.79385 31.3846 7.09662 29.0197C4.39938 26.6529 3.69231 23.6252 3.69231 20.3077C3.69231 18.1089 5.18585 16.6154 7.38462 16.6154ZM14.7692 20.424C16.7243 21.3748 19.6006 22.1538 24 22.1538C28.3994 22.1538 31.2757 21.3748 33.2308 20.4222C33.2012 23.2708 32.1988 24.1809 30.5188 24.9231C28.8092 25.68 26.2578 25.8462 24 25.8462C21.6923 25.8462 19.104 25.8037 17.4222 25.0966C15.7643 24.3951 14.7914 23.4831 14.7692 20.424Z" fill="#44320D"/>
</svg>
