<svg width="49" height="37" viewBox="0 0 49 37" fill="none" xmlns="http://www.w3.org/2000/svg">
<path d="M20.8077 0C19.1498 0 17.9222 0.923077 16.8274 2.13415C15.7382 3.33231 14.852 4.96246 14.4034 6.92308C14.396 6.94523 14.4108 6.96 14.4034 6.98031C13.9215 8.82646 13.2348 12.0148 12.6735 14.7692C11.3812 13.6523 9.73077 12.9231 7.88462 12.9231C3.80462 12.9231 0.5 16.2277 0.5 20.3077C0.5 24.1938 1.50246 28.5729 5.17262 31.7889C8.84462 35.0031 14.8372 36.9231 24.5 36.9231C34.1702 36.9231 40.2218 34.968 43.8846 31.7298C47.5474 28.4935 48.5 24.1108 48.5 20.3077C48.5 16.2277 45.1954 12.9231 41.1154 12.9231C39.3564 12.9269 37.6572 13.5617 36.3265 14.712L36.2692 14.6548C36.2692 14.6474 36.212 14.6603 36.212 14.6548C35.5548 11.6105 35.0305 9.04985 34.5966 6.98031C34.1554 4.90338 33.2268 3.22338 32.1154 2.01969C31.004 0.812307 29.7782 0 28.1923 0C26.6858 0 25.6963 0.771693 25.0188 1.27015C24.7806 1.44185 24.6514 1.56554 24.5 1.67262C24.3486 1.56554 24.2194 1.44185 23.9812 1.27015C23.3037 0.771693 22.3142 0 20.8077 0ZM20.8077 3.69231C20.7782 3.69231 21.2194 3.84369 21.788 4.27015C22.076 4.47877 22.3732 4.70954 22.7683 4.96062C23.1652 5.21354 23.6563 5.53846 24.5 5.53846C25.3437 5.53846 25.8348 5.21354 26.2317 4.96062C26.6268 4.70954 26.924 4.47877 27.2102 4.27015C27.7825 3.84369 28.2218 3.69231 28.1923 3.69231C28.0834 3.69231 28.7628 3.86585 29.4034 4.55815C30.0458 5.25046 30.716 6.36 31.0188 7.78892C31.532 10.2111 32.2742 13.6597 32.924 16.6726C32.8304 16.7353 32.7336 16.7932 32.6342 16.8462C31.3862 17.5754 28.964 18.4615 24.5 18.4615C20.036 18.4615 17.6138 17.5754 16.3658 16.8462C16.2218 16.7668 16.1351 16.6948 16.0188 16.6154C16.6538 13.5508 17.4477 9.86585 17.9812 7.84615V7.78892C18.2766 6.45415 18.9412 5.34462 19.5966 4.61538C20.252 3.88615 20.996 3.69231 20.8077 3.69231ZM7.88462 16.6154C10.0262 16.6154 11.4975 18.0369 11.5769 20.1342V20.1932C11.4983 20.5376 11.5181 20.8971 11.6342 21.2308C11.65 21.2896 11.6691 21.3476 11.6914 21.4043C12.0532 25.0025 14.0785 27.4117 16.5394 28.4418C19.2422 29.5809 22.1923 29.5385 24.5 29.5385C26.8575 29.5385 29.8446 29.5089 32.5197 28.3274C35.0065 27.2234 37.0834 24.7348 37.3658 21.1145C37.4457 20.8533 37.4653 20.5775 37.4231 20.3077V20.2505C37.4303 20.1737 37.4303 20.0964 37.4231 20.0197C37.5449 17.9778 39.0163 16.6154 41.1154 16.6154C43.3142 16.6154 44.8077 18.1089 44.8077 20.3077C44.8077 23.5237 44.108 26.5754 41.4034 28.9625C38.6988 31.3477 33.6588 33.2308 24.5 33.2308C15.3338 33.2308 10.2938 31.3846 7.59662 29.0197C4.89938 26.6529 4.19231 23.6252 4.19231 20.3077C4.19231 18.1089 5.68585 16.6154 7.88462 16.6154ZM15.2692 20.424C17.2243 21.3748 20.1006 22.1538 24.5 22.1538C28.8994 22.1538 31.7757 21.3748 33.7308 20.4222C33.7012 23.2708 32.6988 24.1809 31.0188 24.9231C29.3092 25.68 26.7578 25.8462 24.5 25.8462C22.1923 25.8462 19.604 25.8037 17.9222 25.0966C16.2643 24.3951 15.2914 23.4831 15.2692 20.424Z" fill="#D69A21"/>
</svg>
